<svg width="350" height="130" viewBox="0 0 350 130" fill="none" xmlns="http://www.w3.org/2000/svg">
<path d="M50.9632 42.9423C50.9632 48.7611 47.6553 53.0132 41.9367 55.1953L53.2619 66.7209H37.9561L28.5371 56.7619H11.5494V66.7209H0V47.4183H33.2466C37.5076 47.4183 39.3577 46.1874 39.3577 43.3899C39.3577 40.3686 37.3954 39.0258 33.1905 39.0258H0L7.73699 29.2906H32.0692C43.8429 29.2906 50.9632 34.382 50.9632 42.9423Z" fill="#FF004C"/>
<path d="M82.2501 28.6751C100.864 28.6751 109.722 34.8855 109.722 47.9778C109.722 61.07 100.864 67.3363 82.2501 67.3363C63.6926 67.3363 54.8904 61.1259 54.8904 47.9778C54.8904 34.8855 63.6365 28.6751 82.2501 28.6751ZM82.2501 38.4104C69.7476 38.4104 66.4398 40.4245 66.4398 47.9778C66.4398 55.5869 69.8037 57.6011 82.2501 57.6011C94.8087 57.6011 98.1166 55.5869 98.1166 47.9778C98.1166 40.3686 94.8648 38.4104 82.2501 38.4104Z" fill="#FF004C"/>
<path d="M141.339 66.7209H129.734V54.3001L106.859 29.2906H121.716L135.733 44.6767L149.413 29.2906H163.597L141.339 54.3001V66.7209Z" fill="#FF004C"/>
<path d="M212.134 66.7209H168.571L175.523 56.9857H191.67L181.074 41.7114L163.301 66.7209H149.733L173.785 32.8713C175.411 30.6333 177.654 28.6751 181.242 28.6751C184.718 28.6751 187.017 30.5215 188.642 32.8713L212.134 66.7209Z" fill="#FF004C"/>
<path d="M249.35 66.7209H216.16V29.2906H227.765V56.9857H256.807L249.35 66.7209Z" fill="#FF004C"/>
<path d="M105.571 129.385H79.8367C66.8857 129.385 57.2425 121.216 57.2425 110.306C57.2425 99.5634 66.6054 91.9542 79.8367 91.9542H106.636L99.1231 101.689H79.8367C73.5574 101.689 68.7919 105.55 68.7919 110.809C68.7919 116.124 73.221 119.649 79.8367 119.649H93.9651V114.67H75.0151L82.1915 106.557H105.571V129.385Z" fill="#FF004C"/>
<path d="M171.67 129.385H128.108L135.06 119.649H151.207L140.61 104.375L122.838 129.385H109.27L133.322 95.535C134.948 93.297 137.19 91.3388 140.779 91.3388C144.255 91.3388 146.553 93.1851 148.179 95.535L171.67 129.385Z" fill="#FF004C"/>
<path d="M242.022 129.385H230.024L224.081 107.676L214.326 125.804C212.588 128.937 210.793 130 207.373 130C203.897 130 202.103 128.937 200.421 125.804L190.89 107.676L184.779 129.385H173.006L182.761 96.5421C183.714 93.2411 186.125 91.3388 189.377 91.3388C192.068 91.3388 194.198 92.6816 195.656 95.2552L207.598 117.467L219.596 95.2552C220.997 92.6816 223.184 91.3388 225.875 91.3388C229.071 91.3388 231.594 93.353 232.491 96.5421L242.022 129.385Z" fill="#FF004C"/>
<path d="M257.822 101.689V106.501H287.48L280.752 114.782H257.822V119.649H289.723L282.322 129.385H246.216V91.9542H289.667L282.154 101.689H257.822Z" fill="#FF004C"/>
<path d="M327.324 129.385H291.499L298.955 119.649H327.661C330.015 119.649 331.081 118.922 331.081 117.243C331.081 115.509 329.959 114.782 327.549 114.782H307.253C298.114 114.782 292.844 110.641 292.844 103.536C292.844 95.8147 298.058 91.9542 308.655 91.9542H341.453L333.996 101.689H307.758C305.347 101.689 304.225 102.473 304.225 104.095C304.225 105.774 305.347 106.557 307.758 106.557H328.221C337.528 106.557 342.462 110.306 342.462 117.411C342.462 125.636 337.752 129.385 327.324 129.385Z" fill="#FF004C"/>
<path d="M241.024 2.28616L243.555 9.25939C261.85 17.3681 280.297 26.7365 290.773 35.6356C294.431 38.7439 302.259 46.1947 307.15 53.6166C301.353 55.0292 294.708 55.1643 287.854 53.763C291.145 56.4089 294.841 58.8656 298.973 60.8111C319.292 70.3796 341.243 66.3242 348.003 51.7994C354.764 37.2742 343.801 17.721 323.482 8.15282C319.35 6.20673 315.107 4.92492 310.98 4.07736C317.028 8.94893 321.54 14.7646 324.076 20.7715C314.81 21.4121 303.163 20.5566 298.114 19.678C284.507 17.3102 265.384 9.03031 247.347 0L241.024 2.28616ZM322.542 26.2273C330.996 23.171 340.254 27.1418 344.004 35.165C340.365 31.9039 335.11 30.6923 330.213 32.4627C323.113 35.029 319.455 42.8879 322.043 50.016C322.396 50.9894 322.848 51.898 323.383 52.7363C322.516 48.7798 324.691 44.6684 328.582 43.2619C332.818 41.7305 337.553 43.9603 339.096 48.2132C340.64 52.4665 338.435 57.2044 334.199 58.7358C333.916 58.8379 333.632 58.9218 333.347 58.9909C333.371 58.9938 333.395 58.9979 333.419 59.0005C324.72 61.6163 315.416 56.9928 312.264 48.3101C309.002 39.323 313.591 29.463 322.542 26.2273Z" fill="#FF004C"/>
</svg>
