<svg width="387" height="144" viewBox="0 0 387 144" fill="none" xmlns="http://www.w3.org/2000/svg">
<path d="M56.3507 47.5668C56.3507 54.0122 52.6932 58.7223 46.37 61.1394L58.8924 73.9062H41.9686L31.5539 62.8747H12.7704V73.9062H0V52.5248H36.7613C41.4726 52.5248 43.5184 51.1614 43.5184 48.0626C43.5184 44.716 41.3487 43.2286 36.6993 43.2286H0L8.5549 32.4449H35.4594C48.4777 32.4449 56.3507 38.0847 56.3507 47.5668Z" fill="#FF004C"/>
<path d="M90.9452 31.7632C111.527 31.7632 121.321 38.6424 121.321 53.1446C121.321 67.6468 111.527 74.588 90.9452 74.588C70.4258 74.588 60.6931 67.7087 60.6931 53.1446C60.6931 38.6424 70.3638 31.7632 90.9452 31.7632ZM90.9452 42.5469C77.121 42.5469 73.4634 44.778 73.4634 53.1446C73.4634 61.5732 77.1829 63.8043 90.9452 63.8043C104.831 63.8043 108.489 61.5732 108.489 53.1446C108.489 44.716 104.893 42.5469 90.9452 42.5469Z" fill="#FF004C"/>
<path d="M156.281 73.9062H143.449V60.1478L118.156 32.4449H134.584L150.082 49.4881L165.208 32.4449H180.892L156.281 60.1478V73.9062Z" fill="#FF004C"/>
<path d="M234.559 73.9062H186.392L194.079 63.1226H211.932L200.216 46.2034L180.564 73.9062H165.562L192.157 36.4113C193.955 33.9323 196.434 31.7632 200.402 31.7632C204.245 31.7632 206.787 33.8084 208.585 36.4113L234.559 73.9062Z" fill="#FF004C"/>
<path d="M275.71 73.9062H239.011V32.4449H251.843V63.1226H283.955L275.71 73.9062Z" fill="#FF004C"/>
<path d="M116.731 143.318H88.2766C73.9565 143.318 63.2938 134.27 63.2938 122.185C63.2938 110.286 73.6465 101.857 88.2766 101.857H117.909L109.602 112.641H88.2766C81.3335 112.641 76.0642 116.917 76.0642 122.743C76.0642 128.63 80.9616 132.535 88.2766 132.535H103.899V127.019H82.9453L90.8803 118.032H116.731V143.318Z" fill="#FF004C"/>
<path d="M189.819 143.318H141.651L149.338 132.535H167.191L155.475 115.615L135.823 143.318H120.821L147.416 105.823C149.214 103.344 151.693 101.175 155.661 101.175C159.504 101.175 162.046 103.22 163.844 105.823L189.819 143.318Z" fill="#FF004C"/>
<path d="M267.607 143.318H254.341L247.769 119.272L236.983 139.352C235.061 142.822 233.077 144 229.296 144C225.452 144 223.469 142.822 221.609 139.352L211.07 119.272L204.313 143.318H191.295L202.081 106.939C203.135 103.282 205.801 101.175 209.396 101.175C212.372 101.175 214.728 102.663 216.339 105.513L229.544 130.118L242.81 105.513C244.36 102.663 246.778 101.175 249.753 101.175C253.287 101.175 256.076 103.406 257.068 106.939L267.607 143.318Z" fill="#FF004C"/>
<path d="M285.077 112.641V117.97H317.871L310.432 127.143H285.077V132.535H320.35L312.167 143.318H272.245V101.857H320.288L311.982 112.641H285.077Z" fill="#FF004C"/>
<path d="M361.927 143.318H322.314L330.559 132.535H362.299C364.903 132.535 366.081 131.729 366.081 129.87C366.081 127.948 364.841 127.143 362.175 127.143H339.734C329.629 127.143 323.802 122.557 323.802 114.686C323.802 106.133 329.567 101.857 341.284 101.857H377.549L369.304 112.641H340.292C337.626 112.641 336.386 113.508 336.386 115.306C336.386 117.165 337.626 118.032 340.292 118.032H362.919C373.21 118.032 378.665 122.185 378.665 130.056C378.665 139.166 373.458 143.318 361.927 143.318Z" fill="#FF004C"/>
<path d="M266.504 2.53236L269.302 10.2566C289.531 19.2385 309.928 29.6158 321.511 39.4733C325.556 42.9164 334.212 51.1695 339.62 59.3907C333.21 60.9554 325.862 61.1051 318.284 59.5528C321.923 62.4837 326.01 65.2049 330.579 67.36C353.046 77.959 377.317 73.4668 384.792 57.3778C392.268 41.2883 380.146 19.6294 357.679 9.03081C353.109 6.87515 348.419 5.45529 343.855 4.51646C350.543 9.91266 355.531 16.3547 358.335 23.0085C348.09 23.718 335.212 22.7703 329.629 21.7972C314.584 19.1744 293.439 10.0028 273.495 0L266.504 2.53236ZM356.639 29.0518C365.987 25.6664 376.224 30.0647 380.37 38.952C376.347 35.3397 370.536 33.9977 365.121 35.9587C357.271 38.8014 353.226 47.5066 356.087 55.4024C356.478 56.4806 356.978 57.4871 357.569 58.4156C356.611 54.033 359.015 49.4789 363.318 47.9209C368.002 46.2245 373.237 48.6945 374.944 53.4054C376.651 58.1168 374.212 63.3649 369.528 65.0612C369.216 65.1742 368.902 65.2673 368.586 65.3438C368.613 65.3469 368.639 65.3515 368.666 65.3544C359.047 68.252 348.76 63.1304 345.275 53.5127C341.668 43.5578 346.742 32.636 356.639 29.0518Z" fill="#FF004C"/>
</svg>
