<svg width="214" height="79" viewBox="0 0 214 79" fill="none" xmlns="http://www.w3.org/2000/svg">
<path d="M31.1603 26.0957C31.1603 29.6317 29.1378 32.2157 25.6413 33.5417L32.5658 40.5458H23.2074L17.4484 34.4937H7.06164V40.5458H0V28.8157H20.3279C22.9332 28.8157 24.0644 28.0677 24.0644 26.3677C24.0644 24.5317 22.8646 23.7157 20.2936 23.7157H0L4.73061 17.7996H19.6081C26.8068 17.7996 31.1603 20.8937 31.1603 26.0957Z" fill="#FF004C"/>
<path d="M50.2901 17.4256C61.671 17.4256 67.0872 21.1997 67.0872 29.1557C67.0872 37.1118 61.671 40.9198 50.2901 40.9198C38.9435 40.9198 33.5615 37.1458 33.5615 29.1557C33.5615 21.1997 38.9092 17.4256 50.2901 17.4256ZM50.2901 23.3417C42.6457 23.3417 40.6232 24.5657 40.6232 29.1557C40.6232 33.7797 42.68 35.0037 50.2901 35.0037C57.9688 35.0037 59.9913 33.7797 59.9913 29.1557C59.9913 24.5317 58.0031 23.3417 50.2901 23.3417Z" fill="#FF004C"/>
<path d="M86.4189 40.5458H79.3229V32.9977L65.3368 17.7996H74.4209L82.9909 27.1497L91.3552 17.7996H100.028L86.4189 32.9977V40.5458Z" fill="#FF004C"/>
<path d="M129.705 40.5458H103.069L107.32 34.6297H117.193L110.714 25.3477L99.8469 40.5458H91.5512L106.257 19.9757C107.251 18.6157 108.623 17.4256 110.816 17.4256C112.942 17.4256 114.347 18.5477 115.341 19.9757L129.705 40.5458Z" fill="#FF004C"/>
<path d="M152.46 40.5458H132.166V17.7996H139.262V34.6297H157.019L152.46 40.5458Z" fill="#FF004C"/>
<path d="M64.5489 78.626H48.8145C40.8958 78.626 34.9997 73.662 34.9997 67.0319C34.9997 60.5039 40.7244 55.8799 48.8145 55.8799H65.2002L60.6067 61.7959H48.8145C44.9751 61.7959 42.0613 64.1419 42.0613 67.3379C42.0613 70.5679 44.7694 72.71 48.8145 72.71H57.453V69.6839H45.8664L50.2542 64.7539H64.5489V78.626Z" fill="#FF004C"/>
<path d="M104.964 78.626H78.3288L82.5795 72.71H92.4521L85.9732 63.4279L75.1065 78.626H66.8108L81.5169 58.0559C82.511 56.6959 83.8822 55.5059 86.0761 55.5059C88.2014 55.5059 89.6069 56.6279 90.601 58.0559L104.964 78.626Z" fill="#FF004C"/>
<path d="M147.979 78.626H140.643L137.009 65.4339L131.045 76.45C129.982 78.354 128.885 79 126.794 79C124.669 79 123.572 78.354 122.543 76.45L116.716 65.4339L112.979 78.626H105.781L111.745 58.6679C112.328 56.6619 113.802 55.5059 115.79 55.5059C117.436 55.5059 118.738 56.3219 119.63 57.8859L126.931 71.384L134.267 57.8859C135.124 56.3219 136.461 55.5059 138.106 55.5059C140.06 55.5059 141.603 56.7299 142.151 58.6679L147.979 78.626Z" fill="#FF004C"/>
<path d="M157.639 61.7959V64.7199H175.773L171.66 69.7519H157.639V72.71H177.145L172.62 78.626H150.544V55.8799H177.11L172.517 61.7959H157.639Z" fill="#FF004C"/>
<path d="M200.135 78.626H178.231L182.79 72.71H200.341C201.781 72.71 202.432 72.268 202.432 71.248C202.432 70.1939 201.747 69.7519 200.273 69.7519H187.863C182.276 69.7519 179.053 67.2359 179.053 62.9179C179.053 58.2259 182.241 55.8799 188.72 55.8799H208.774L204.215 61.7959H188.172C186.698 61.7959 186.012 62.2719 186.012 63.2579C186.012 64.2779 186.698 64.7539 188.172 64.7539H200.684C206.374 64.7539 209.391 67.0319 209.391 71.35C209.391 76.348 206.511 78.626 200.135 78.626Z" fill="#FF004C"/>
<path d="M147.369 1.38928L148.917 5.62686C160.102 10.5545 171.382 16.2476 177.787 21.6555C180.023 23.5444 184.809 28.0722 187.8 32.5824C184.256 33.4408 180.193 33.5229 176.002 32.6713C178.014 34.2792 180.274 35.7722 182.801 36.9544C195.224 42.7692 208.646 40.3047 212.779 31.4781C216.913 22.6512 210.21 10.7689 197.786 4.9544C195.259 3.77178 192.666 2.99283 190.142 2.47778C193.84 5.43819 196.599 8.97236 198.149 12.6227C192.484 13.012 185.363 12.4921 182.276 11.9582C173.956 10.5193 162.263 5.48765 151.235 0L147.369 1.38928ZM197.211 15.9381C202.381 14.0809 208.041 16.4938 210.334 21.3695C208.109 19.3878 204.896 18.6515 201.901 19.7273C197.561 21.2869 195.324 26.0627 196.906 30.3944C197.122 30.9859 197.399 31.538 197.726 32.0475C197.196 29.6431 198.525 27.1447 200.904 26.2899C203.495 25.3593 206.389 26.7143 207.333 29.2988C208.277 31.8835 206.929 34.7627 204.339 35.6933C204.166 35.7553 203.992 35.8064 203.818 35.8483C203.832 35.8501 203.847 35.8526 203.862 35.8541C198.543 37.4438 192.854 34.6341 190.927 29.3577C188.933 23.8963 191.738 17.9044 197.211 15.9381Z" fill="#FF004C"/>
</svg>
